<svg width="97" height="12" viewBox="0 0 97 12" fill="none" xmlns="http://www.w3.org/2000/svg">
<path d="M3.92203 11.168C2.78803 11.168 1.37403 10.944 0.506031 10.622V10.384L0.0720313 7.22C1.03803 9.586 2.45203 10.888 4.11803 10.888C5.30803 10.888 6.13403 10.132 6.13403 8.998C6.13403 6.058 0.282031 7.024 0.282031 3.398C0.282031 1.69 1.79403 0.415999 3.86603 0.415999C4.83203 0.415999 5.93803 0.668 6.73603 1.088V1.326L7.15603 4C6.16203 1.858 4.95803 0.71 3.53003 0.71C2.36803 0.71 1.52803 1.494 1.52803 2.572C1.52803 5.288 7.38003 4.392 7.38003 8.13C7.38003 9.88 6.00803 11.168 3.92203 11.168ZM16.5358 11H8.02381L9.10181 10.16V1.48L8.02381 0.64H16.0458V0.906L16.4378 3.664L14.3938 0.933999H10.8518V5.456H13.0358L14.1558 3.65V7.556L13.0358 5.736H10.8518V10.706H14.8558L16.9138 7.598L16.5358 10.734V11ZM27.1588 1.48V11.434L19.4028 2.376H19.2348V10.16L20.7188 11H17.4008L18.8848 10.16V1.76L17.7928 0.681999L20.1728 0.485999L26.6128 8.018H26.7948V1.48L25.3108 0.64H28.6428L27.1588 1.48ZM31.7711 11L33.0451 10.23V0.933999H31.2531L28.9711 3.916L29.4471 0.906V0.64H38.3931V0.906L38.8691 3.916L36.5871 0.933999H34.7951V10.23L36.0691 11H31.7711ZM39.4828 11L40.5608 10.23V1.41L39.4828 0.64H43.4028L42.3108 1.41V10.23L43.4028 11H39.4828ZM54.2045 2.124L50.1585 11.434L45.7205 2.124H45.5805V10.202L47.0645 11H43.7465L45.2305 10.202V1.48L44.0825 0.64H46.9665L50.8165 8.69H51.0125L54.4565 0.64H57.2145L56.1225 1.41V10.23L57.2145 11H53.2945L54.3725 10.23V2.124H54.2045ZM66.2468 11H57.7348L58.8128 10.16V1.48L57.7348 0.64H65.7568V0.906L66.1488 3.664L64.1048 0.933999H60.5628V5.456H62.7468L63.8668 3.65V7.556L62.7468 5.736H60.5628V10.706H64.5668L66.6248 7.598L66.2468 10.734V11ZM76.8697 1.48V11.434L69.1137 2.376H68.9457V10.16L70.4297 11H67.1117L68.5957 10.16V1.76L67.5037 0.681999L69.8837 0.485999L76.3237 8.018H76.5057V1.48L75.0217 0.64H78.3537L76.8697 1.48ZM81.482 11L82.756 10.23V0.933999H80.964L78.682 3.916L79.158 0.906V0.64H88.104V0.906L88.58 3.916L86.298 0.933999H84.506V10.23L85.78 11H81.482ZM93.3908 11.168C92.2568 11.168 90.8428 10.944 89.9748 10.622V10.384L89.5408 7.22C90.5068 9.586 91.9208 10.888 93.5868 10.888C94.7768 10.888 95.6028 10.132 95.6028 8.998C95.6028 6.058 89.7508 7.024 89.7508 3.398C89.7508 1.69 91.2628 0.415999 93.3348 0.415999C94.3008 0.415999 95.4068 0.668 96.2048 1.088V1.326L96.6248 4C95.6308 1.858 94.4268 0.71 92.9988 0.71C91.8368 0.71 90.9968 1.494 90.9968 2.572C90.9968 5.288 96.8488 4.392 96.8488 8.13C96.8488 9.88 95.4768 11.168 93.3908 11.168Z" fill="black"/>
</svg>
