<svg width="15" height="20" viewBox="0 0 15 20" fill="none" xmlns="http://www.w3.org/2000/svg">
<path d="M11.6895 19.5H2.0874V17.105H0.893555V14.7026H2.0874V15.9038H3.28857V17.105H4.48975V18.3062H10.4883V17.105H11.6895V12.9009H10.4883V11.707H8.09326V10.5059H5.69092V9.30469H3.28857V8.10352H2.0874V6.90234H0.893555V2.70557H2.0874V1.50439H3.28857V0.303223H11.6895V1.50439H12.8906V3.90674H11.6895V2.70557H10.4883V1.50439H4.48975V2.70557H3.28857V5.70117H4.48975V6.90234H6.89209V8.10352H9.28711V9.30469H11.6895V10.5059H12.8906V11.707H14.0918V17.105H12.8906V18.3062H11.6895V19.5Z" fill="black"/>
</svg>
